<svg width="24" height="26" viewBox="0 0 24 26" fill="none" xmlns="http://www.w3.org/2000/svg">
<path d="M22.3678 20.7689L22.368 20.7695C22.891 21.9996 23.1839 23.298 23.2419 24.6338H21.8656C21.7425 22.1925 20.7295 19.9128 18.9843 18.1734C17.1185 16.3138 14.6384 15.2897 12.0001 15.2897C9.36171 15.2897 6.8816 16.3137 5.01585 18.1734C3.27063 19.9128 2.25765 22.1925 2.13456 24.6338H0.757848C0.814244 23.3057 1.11009 21.9978 1.63194 20.7729L1.63219 20.7724C2.19754 19.4408 3.01628 18.2309 4.0433 17.2094L4.04418 17.2085C5.07661 16.1765 6.27866 15.3689 7.61887 14.8053L7.62677 14.802C7.63069 14.8005 7.63565 14.7986 7.64085 14.7965C7.65211 14.7919 7.66768 14.7853 7.68559 14.7764L8.42594 14.4074L7.75513 13.9234C5.93255 12.6083 4.75007 10.4732 4.75007 8.06518C4.75007 4.07572 7.9934 0.840698 12.0001 0.840698C16.0067 0.840698 19.25 4.07572 19.25 8.06518C19.25 10.4733 18.0675 12.6082 16.2454 13.92L15.5733 14.4039L16.3145 14.7733C16.3325 14.7822 16.348 14.7888 16.3593 14.7934C16.3646 14.7955 16.3696 14.7975 16.3736 14.799L16.3807 14.802C17.7171 15.3657 18.9312 16.1819 19.9561 17.2055L19.9571 17.2066C20.9849 18.2271 21.8036 19.437 22.3678 20.7689ZM23.5002 24.6338H23.5H23.5002ZM7.8471 12.2068C8.95651 13.3126 10.4335 13.9225 12.0001 13.9225C13.5667 13.9225 15.0436 13.3126 16.153 12.2068C17.2625 11.101 17.8751 9.62811 17.8751 8.06518C17.8751 6.50224 17.2625 5.02938 16.153 3.92356C15.0436 2.81779 13.5667 2.20788 12.0001 2.20788C10.4335 2.20788 8.95651 2.81779 7.8471 3.92356C6.73762 5.02938 6.12507 6.50224 6.12507 8.06518C6.12507 9.62811 6.73762 11.101 7.8471 12.2068Z" fill="#111111" stroke="black"/>
</svg>
