<svg width="20" height="24" viewBox="0 0 20 24" fill="none" xmlns="http://www.w3.org/2000/svg">
<path d="M8.34039 15.8724C7.70919 19.1772 6.93999 22.3452 4.65879 24C3.95559 19.0056 5.69199 15.2556 6.49959 11.274C5.12319 8.958 6.66519 4.29959 9.56559 5.44799C13.1356 6.85919 6.47439 14.0544 10.9456 14.9544C15.6148 15.8916 17.5204 6.85439 14.6248 3.91559C10.4428 -0.330005 2.44959 3.81599 3.43359 9.894C3.67239 11.3796 5.20719 11.8296 4.04679 13.8804C1.36959 13.2876 0.570394 11.1756 0.673594 8.36039C0.839194 3.75239 4.81239 0.527995 8.79879 0.0803947C13.84 -0.484805 18.5716 1.93199 19.2256 6.67319C19.9612 12.0264 16.9504 17.8248 11.5588 17.4072C10.0972 17.2932 9.48519 16.5684 8.34039 15.8724V15.8724Z" fill="black"/>
</svg>
